<svg xmlns="http://www.w3.org/2000/svg" width="145" height="31" fill="none" viewBox="0 0 145 31"><path fill="#000" d="M22.926 13.223c1.022 3.998.407 6.365-.43 7.597-.811 1.196-2.035 1.652-3.203 1.547a3.519 3.519 0 0 1-2.905-2.041c-.57-1.23-.752-3.393.908-6.617 1.703-3.31 1.895-6.444.627-8.958C16.66 2.25 14.176.825 11.557.549c-2.629-.275-5.452.586-7.65 2.646C1.7 5.267.259 8.412.03 12.53c-.284 5.154 1.436 11.59 8.04 17.97l3.461-3.344c-5.634-5.444-6.822-10.578-6.612-14.374.176-3.18 1.247-5.112 2.4-6.192 1.164-1.092 2.55-1.46 3.712-1.338 1.17.122 2.06.719 2.491 1.57.422.837.624 2.381-.61 4.78-2.102 4.086-2.33 7.774-.99 10.658 1.332 2.872 4.055 4.557 6.915 4.815 2.883.261 5.9-.928 7.755-3.662 1.83-2.699 2.31-6.547 1.087-11.325l-4.752 1.134v.002ZM54.221 20.712c-.663 0-1.096-.279-1.557-1.115L50.5 15.944c2.799-.614 4.847-2.705 4.847-5.94 0-3.848-2.914-6.303-6.578-6.303h-9.954V23.92h4.068v-7.613h3.347l2.856 5.02c1.212 2.259 2.597 2.872 4.472 2.872 1.327 0 2.453-.363 3.348-.893l-1.154-3.04c-.549.307-1.039.446-1.53.446v.001Zm-5.857-7.864h-5.482V7.16h5.482c1.731 0 2.943 1.143 2.943 2.845 0 1.701-1.212 2.844-2.943 2.844ZM64.686 8.944c-4.444 0-7.848 3.012-7.848 7.642 0 4.63 3.347 7.612 7.762 7.612 3.463 0 6.002-1.701 7.156-4.322l-3.463-1.255c-.664 1.478-1.847 2.26-3.664 2.26-1.934 0-3.492-1.2-3.752-3.598h11.254v-.976c0-4.74-2.943-7.362-7.444-7.362h-.001Zm-3.578 5.884c.548-1.73 1.962-2.566 3.578-2.566 1.616 0 2.827.865 3.26 2.566h-6.838ZM81.554 12.374c1.731 0 3.174.864 3.636 2.65l3.981-.697c-.78-3.542-3.722-5.383-7.617-5.383-4.415 0-7.935 2.845-7.935 7.642 0 4.796 3.52 7.612 7.935 7.612 3.895 0 6.838-1.84 7.617-5.382l-3.981-.67c-.462 1.758-1.905 2.622-3.636 2.622-2.193 0-3.924-1.311-3.924-4.183s1.731-4.21 3.924-4.21ZM141.019 9.223v8.06c0 1.896-1.356 3.15-3.318 3.15-2.107 0-3.174-1.254-3.174-3.179v-8.03h-4.011v8.226c0 3.737 2.423 6.051 5.886 6.051 2.106 0 3.636-.753 4.617-1.98v1.534c0 2.928-1.819 4.043-4.127 4.043-2.009 0-3.294-.763-4.348-2.254l-2.89 2.353c1.678 2.243 4.155 3.303 7.412 3.303 4.588 0 7.935-2.426 7.935-7.445V9.223h-3.982Z"/><path fill="#000" d="M129.198 20.489a2.99 2.99 0 0 1-1.269.279c-.838 0-1.27-.419-1.27-1.422V2.642h-4.011v17.122c0 3.29 2.078 4.434 4.559 4.434a6.786 6.786 0 0 0 3.088-.753l-1.097-2.956ZM115.364 8.972c-1.673 0-2.885.697-3.664 1.757V9.223h-3.636v14.696h4.011v-8.924c0-1.756.895-2.704 2.395-2.704 1.588 0 2.395.892 2.395 2.816v.224l3.867-.335v-.698c0-3.374-2.251-5.326-5.367-5.326h-.001ZM101.476 17.7c0 1.896-1.356 3.18-3.202 3.18-1.846 0-3.261-1.283-3.261-3.18V9.222h-4.011v8.952c0 3.513 2.395 6.023 6.059 6.023 2.136 0 3.664-.92 4.617-2.286v2.008h3.808V9.223h-4.011V17.7l.001-.001Z"/></svg>