<svg xmlns="http://www.w3.org/2000/svg" width="1024" height="1024" viewBox="0 0 1024 1024">
<g>
<path d="M 167.55 597.88 C160.40,599.68 155.95,598.93 148.90,594.69 C135.61,586.73 133.16,569.58 143.65,557.96 C145.51,555.91 148.37,553.68 150.01,553.00 L 153.00 551.76 L 153.00 474.19 L 148.75 471.69 C128.00,459.50 136.87,426.64 160.91,426.67 C170.52,426.69 178.25,432.06 182.78,441.87 C184.78,446.22 185.15,448.24 184.71,452.52 C184.41,455.43 183.52,459.05 182.72,460.56 C182.55,460.89 182.38,461.16 182.27,461.45 C181.43,463.69 184.32,467.32 219.23,511.29 C220.62,513.04 222.06,514.85 223.55,516.73 C228.21,522.59 228.75,522.96 232.71,522.98 L 236.93 523.00 L 260.78 493.22 L 284.62 463.44 L 283.17 459.97 C282.38,458.06 281.72,454.02 281.72,451.00 C281.69,430.37 305.47,418.93 320.65,432.27 C328.07,438.78 331.17,451.56 327.48,460.40 C325.49,465.16 319.76,471.44 315.99,473.00 L 313.00 474.24 L 313.00 551.76 L 315.99 553.00 C319.76,554.56 325.49,560.84 327.48,565.60 C330.82,573.61 328.76,584.39 322.66,590.84 C307.74,606.60 281.88,596.32 281.59,574.50 C281.52,569.55 282.04,567.54 284.61,563.00 C287.71,557.49 293.94,552.10 297.26,552.03 C298.92,552.00 299.01,549.65 298.76,512.75 C298.52,476.82 298.36,473.50 296.83,473.50 C295.84,473.50 285.99,484.93 272.70,501.50 L 250.25 529.50 L 251.95 532.00 C261.93,546.68 254.37,566.18 237.17,570.15 C223.65,573.27 208.81,561.03 208.67,546.65 C208.63,541.82 210.87,535.33 214.13,530.89 C214.33,530.62 214.54,530.44 214.65,530.21 C215.26,528.98 213.25,526.43 193.62,501.70 C192.22,499.93 190.72,498.04 189.13,496.04 C176.40,479.98 170.31,473.05 169.30,473.44 C168.49,473.75 167.65,474.00 167.42,474.00 C167.19,474.00 167.00,491.28 167.00,512.41 L 167.00 550.82 L 171.50 553.00 C186.54,560.28 189.15,581.66 176.38,592.90 C173.82,595.15 170.13,597.23 167.55,597.88 ZM 452.20 480.50 L 452.00 573.00 L 435.00 573.00 L 435.00 440.00 L 458.83 440.00 L 463.41 459.25 C465.93,469.84 468.45,480.08 469.00,482.00 C469.56,483.92 471.08,490.00 472.39,495.50 C473.70,501.00 475.02,504.83 475.33,504.00 C475.63,503.17 479.33,488.44 483.55,471.25 L 491.22 440.00 L 516.00 440.00 L 516.00 573.08 L 498.50 572.50 L 498.50 477.46 L 490.95 501.48 L 483.40 525.50 L 465.61 525.50 L 460.86 509.00 C458.25,499.92 455.23,489.80 454.16,486.50 ZM 655.01 539.25 L 655.00 573.00 L 646.47 573.00 C640.54,573.00 637.80,572.62 637.50,571.75 C637.26,571.06 636.94,549.91 636.78,524.75 L 636.50 479.00 L 644.24 479.00 L 651.98 479.00 L 652.61 482.94 L 653.24 486.87 L 655.64 484.01 C659.43,479.52 665.65,477.00 673.00,477.00 C679.31,477.00 679.41,477.04 684.09,481.90 L 688.82 486.80 L 691.66 483.81 C696.16,479.07 701.13,477.00 708.01,477.00 C715.04,477.00 718.46,478.49 722.80,483.42 C728.17,489.54 728.36,491.18 728.75,533.75 L 729.11 573.00 L 711.11 573.00 L 710.81 536.07 C710.51,500.37 710.43,499.05 708.40,496.32 C704.03,490.45 695.20,493.02 693.04,500.80 C692.43,503.00 692.01,518.37 692.01,538.79 L 692.00 573.08 L 674.50 572.50 L 674.30 538.27 C674.04,496.38 673.38,493.00 665.38,493.00 C661.07,493.00 657.58,496.23 656.09,501.62 C655.42,504.04 655.01,518.23 655.01,539.25 ZM 378.00 511.39 L 378.00 640.00 L 308.00 640.00 L 308.00 630.00 L 367.50 630.00 L 367.24 512.52 L 366.98 395.03 L 337.74 394.77 L 308.50 394.50 L 308.20 389.25 L 307.90 384.00 L 341.37 384.00 C359.77,384.00 375.55,383.73 376.42,383.39 C377.86,382.84 378.00,394.53 378.00,511.39 ZM 159.00 630.00 L 159.00 640.00 L 88.00 640.00 L 88.00 384.00 L 121.92 384.00 C140.57,384.00 156.55,383.73 157.42,383.39 C158.75,382.88 159.00,383.74 159.00,388.89 L 159.00 395.00 L 98.00 395.00 L 98.00 630.00 ZM 895.38 574.94 C888.36,576.24 887.16,576.20 879.16,574.46 C857.95,569.86 846.61,554.64 845.29,529.00 C844.31,509.92 848.04,497.41 857.59,487.77 C866.80,478.46 875.43,475.44 890.74,476.17 C898.37,476.54 900.77,477.10 906.33,479.84 C913.97,483.60 921.72,491.61 925.55,499.69 L 925.56 499.72 C927.39,503.60 928.37,505.66 927.72,506.75 C926.98,508.00 924.14,508.00 918.07,508.00 L 908.04 508.00 L 906.11 504.25 C901.59,495.47 894.04,491.17 885.26,492.38 C872.80,494.09 865.26,503.54 863.33,519.89 C862.60,526.05 864.58,540.20 866.92,545.50 C871.82,556.60 885.72,562.04 896.57,557.11 C901.22,554.99 906.48,549.11 908.10,544.21 C908.86,541.89 909.65,541.04 910.68,541.43 C911.50,541.74 915.95,542.00 920.58,542.00 L 928.99 542.00 L 927.09 546.99 C921.08,562.83 910.51,572.14 895.38,574.94 ZM 618.00 557.00 L 618.00 573.00 L 542.00 573.00 L 542.00 557.00 L 571.00 557.00 L 571.00 493.00 L 547.00 493.00 L 547.00 479.00 L 589.00 479.00 L 589.00 557.00 ZM 828.00 557.00 L 828.00 573.00 L 790.56 573.00 C769.97,573.00 752.93,572.66 752.70,572.25 C752.46,571.84 752.18,568.24 752.07,564.25 L 751.87 557.00 L 781.00 557.00 L 781.00 493.00 L 757.00 493.00 L 757.00 479.00 L 799.00 479.00 L 799.00 557.00 ZM 590.00 440.00 L 590.00 462.00 L 567.00 462.00 L 567.00 440.00 ZM 800.00 440.00 L 800.00 462.00 L 777.00 462.00 L 777.00 440.00 Z" fill="rgb(10,10,13)"/>
<path d="M 0.00 512.00 L 0.00 0.00 L 512.00 0.00 L 1024.00 0.00 L 1024.00 512.00 L 1024.00 1024.00 L 512.00 1024.00 L 0.00 1024.00 L 0.00 512.00 ZM 159.00 635.00 L 159.00 630.00 L 128.50 630.00 L 98.00 630.00 L 98.00 512.50 L 98.00 395.00 L 128.50 395.00 L 159.00 395.00 L 159.00 388.89 C159.00,383.74 158.75,382.88 157.42,383.39 C156.55,383.73 140.57,384.00 121.92,384.00 L 88.00 384.00 L 88.00 512.00 L 88.00 640.00 L 123.50 640.00 L 159.00 640.00 L 159.00 635.00 ZM 378.00 511.39 C378.00,394.53 377.86,382.84 376.42,383.39 C375.55,383.73 359.77,384.00 341.37,384.00 L 307.90 384.00 L 308.20 389.25 L 308.50 394.50 L 337.74 394.77 L 366.98 395.03 L 367.24 512.52 L 367.50 630.00 L 337.75 630.00 L 308.00 630.00 L 308.00 635.00 L 308.00 640.00 L 343.00 640.00 L 378.00 640.00 L 378.00 511.39 ZM 167.55 597.88 C170.13,597.23 173.82,595.15 176.38,592.90 C189.15,581.66 186.54,560.28 171.50,553.00 L 167.00 550.82 L 167.00 512.41 C167.00,491.28 167.19,474.00 167.42,474.00 C167.65,474.00 168.49,473.75 169.30,473.44 C170.31,473.05 176.40,479.98 189.13,496.04 C217.08,531.28 215.48,529.05 214.13,530.89 C210.87,535.33 208.63,541.82 208.67,546.65 C208.81,561.03 223.65,573.27 237.17,570.15 C254.37,566.18 261.93,546.68 251.95,532.00 L 250.25 529.50 L 272.70 501.50 C285.99,484.93 295.84,473.50 296.83,473.50 C298.36,473.50 298.52,476.82 298.76,512.75 C299.01,549.65 298.92,552.00 297.26,552.03 C293.94,552.10 287.71,557.49 284.61,563.00 C282.04,567.54 281.52,569.55 281.59,574.50 C281.88,596.32 307.74,606.60 322.66,590.84 C328.76,584.39 330.82,573.61 327.48,565.60 C325.49,560.84 319.76,554.56 315.99,553.00 L 313.00 551.76 L 313.00 513.00 L 313.00 474.24 L 315.99 473.00 C319.76,471.44 325.49,465.16 327.48,460.40 C331.17,451.56 328.07,438.78 320.65,432.27 C305.47,418.93 281.69,430.37 281.72,451.00 C281.72,454.02 282.38,458.06 283.17,459.97 L 284.62 463.44 L 260.78 493.22 L 236.93 523.00 L 232.71 522.98 C228.75,522.96 228.21,522.59 223.55,516.73 C179.68,461.48 181.17,463.53 182.72,460.56 C183.52,459.05 184.41,455.43 184.71,452.52 C185.15,448.24 184.78,446.22 182.78,441.87 C178.25,432.06 170.52,426.69 160.91,426.67 C136.87,426.64 128.00,459.50 148.75,471.69 L 153.00 474.19 L 153.00 512.97 L 153.00 551.76 L 150.01 553.00 C148.37,553.68 145.51,555.91 143.65,557.96 C133.16,569.58 135.61,586.73 148.90,594.69 C155.95,598.93 160.40,599.68 167.55,597.88 ZM 895.38 574.94 C910.51,572.14 921.08,562.83 927.09,546.99 L 928.99 542.00 L 920.58 542.00 C915.95,542.00 911.50,541.74 910.68,541.43 C909.65,541.04 908.86,541.89 908.10,544.21 C906.48,549.11 901.22,554.99 896.57,557.11 C885.72,562.04 871.82,556.60 866.92,545.50 C864.58,540.20 862.60,526.05 863.33,519.89 C865.26,503.54 872.80,494.09 885.26,492.38 C894.04,491.17 901.59,495.47 906.11,504.25 L 908.04 508.00 L 918.02 508.00 C929.49,508.00 929.48,508.01 925.55,499.69 C921.72,491.61 913.97,483.60 906.33,479.84 C900.77,477.10 898.37,476.54 890.74,476.17 C875.43,475.44 866.80,478.46 857.59,487.77 C848.04,497.41 844.31,509.92 845.29,529.00 C846.61,554.64 857.95,569.86 879.16,574.46 C887.16,576.20 888.36,576.24 895.38,574.94 ZM 452.10 526.75 L 452.20 480.50 L 454.16 486.50 C455.23,489.80 458.25,499.92 460.86,509.00 L 465.61 525.50 L 474.50 525.50 L 483.40 525.50 L 490.95 501.48 L 498.50 477.46 L 498.50 524.98 L 498.50 572.50 L 507.25 572.79 L 516.00 573.08 L 516.00 506.54 L 516.00 440.00 L 503.61 440.00 L 491.22 440.00 L 483.55 471.25 C479.33,488.44 475.63,503.17 475.33,504.00 C475.02,504.83 473.70,501.00 472.39,495.50 C471.08,490.00 469.56,483.92 469.00,482.00 C468.45,480.08 465.93,469.84 463.41,459.25 L 458.83 440.00 L 446.92 440.00 L 435.00 440.00 L 435.00 506.50 L 435.00 573.00 L 443.50 573.00 L 452.00 573.00 L 452.10 526.75 ZM 618.00 565.00 L 618.00 557.00 L 603.50 557.00 L 589.00 557.00 L 589.00 518.00 L 589.00 479.00 L 568.00 479.00 L 547.00 479.00 L 547.00 486.00 L 547.00 493.00 L 559.00 493.00 L 571.00 493.00 L 571.00 525.00 L 571.00 557.00 L 556.50 557.00 L 542.00 557.00 L 542.00 565.00 L 542.00 573.00 L 580.00 573.00 L 618.00 573.00 L 618.00 565.00 ZM 655.01 539.25 C655.01,518.23 655.42,504.04 656.09,501.62 C657.58,496.23 661.07,493.00 665.38,493.00 C673.38,493.00 674.04,496.38 674.30,538.27 L 674.50 572.50 L 683.25 572.79 L 692.00 573.08 L 692.01 538.79 C692.01,518.37 692.43,503.00 693.04,500.80 C695.20,493.02 704.03,490.45 708.40,496.32 C710.43,499.05 710.51,500.37 710.81,536.07 L 711.11 573.00 L 720.11 573.00 L 729.11 573.00 L 728.75 533.75 C728.36,491.18 728.17,489.54 722.80,483.42 C718.46,478.49 715.04,477.00 708.01,477.00 C701.13,477.00 696.16,479.07 691.66,483.81 L 688.82 486.80 L 684.09 481.90 C679.41,477.04 679.31,477.00 673.00,477.00 C665.65,477.00 659.43,479.52 655.64,484.01 L 653.24 486.87 L 652.61 482.94 L 651.98 479.00 L 644.24 479.00 L 636.50 479.00 L 636.78 524.75 C636.94,549.91 637.26,571.06 637.50,571.75 C637.80,572.62 640.54,573.00 646.47,573.00 L 655.00 573.00 L 655.01 539.25 ZM 828.00 565.00 L 828.00 557.00 L 813.50 557.00 L 799.00 557.00 L 799.00 518.00 L 799.00 479.00 L 778.00 479.00 L 757.00 479.00 L 757.00 486.00 L 757.00 493.00 L 769.00 493.00 L 781.00 493.00 L 781.00 525.00 L 781.00 557.00 L 766.43 557.00 L 751.87 557.00 L 752.07 564.25 C752.18,568.24 752.46,571.84 752.70,572.25 C752.93,572.66 769.97,573.00 790.56,573.00 L 828.00 573.00 L 828.00 565.00 ZM 590.00 451.00 L 590.00 440.00 L 578.50 440.00 L 567.00 440.00 L 567.00 451.00 L 567.00 462.00 L 578.50 462.00 L 590.00 462.00 L 590.00 451.00 ZM 800.00 451.00 L 800.00 440.00 L 788.50 440.00 L 777.00 440.00 L 777.00 451.00 L 777.00 462.00 L 788.50 462.00 L 800.00 462.00 L 800.00 451.00 Z" fill="rgb(254,254,254)"/>
</g>
</svg>